<?xml version="1.0" standalone="no"?>
<!DOCTYPE svg PUBLIC "-//W3C//DTD SVG 20010904//EN"
 "http://www.w3.org/TR/2001/REC-SVG-20010904/DTD/svg10.dtd">
<svg version="1.0" xmlns="http://www.w3.org/2000/svg"
 width="1764.000000pt" height="535.000000pt" viewBox="0 0 1764.000000 535.000000"
 preserveAspectRatio="xMidYMid meet">

<g transform="translate(0.000000,535.000000) scale(0.100000,-0.100000)"
fill="#000000" stroke="none">
<path d="M2684 4640 c-284 -4 -335 -7 -350 -21 -11 -9 -72 -60 -137 -114
l-118 -98 49 -51 c109 -112 196 -283 232 -457 21 -102 35 -267 25 -298 l-6
-21 -650 0 -649 0 -458 -379 c-251 -209 -472 -393 -491 -408 l-33 -29 85 -69
c47 -39 86 -75 86 -81 1 -10 243 -216 280 -238 29 -18 264 -49 536 -71 319
-27 459 -55 632 -127 157 -65 322 -201 403 -331 24 -38 40 -55 50 -51 8 3 99
57 202 121 l187 116 -93 76 c-51 42 -192 157 -314 256 -199 162 -251 215 -211
215 25 0 149 41 149 49 0 5 -57 55 -127 112 -71 56 -134 107 -141 114 -10 9
46 59 262 236 302 247 312 258 373 419 18 49 38 121 45 162 6 40 15 77 18 81
4 5 141 -78 305 -184 281 -182 298 -192 311 -174 37 50 116 220 138 297 72
249 50 542 -64 832 -23 59 -48 106 -60 114 -11 7 -45 11 -77 10 -32 -1 -207
-5 -389 -8z"/>
<path d="M1106 1930 c10 -10 70 -61 133 -113 l114 -94 36 17 c98 47 245 51
353 10 32 -12 85 -41 118 -66 50 -37 64 -43 80 -34 17 9 28 3 71 -40 27 -27
59 -69 69 -93 12 -26 20 -34 20 -22 0 23 -41 114 -70 155 -27 37 -25 45 10 62
l30 15 -57 42 c-77 57 -176 106 -265 131 -76 21 -225 34 -507 44 -152 5 -154
5 -135 -14z"/>
<path d="M1770 1129 c-135 -121 -249 -225 -255 -231 -7 -7 15 -9 78 -5 73 4
99 11 163 41 87 41 177 125 208 194 10 23 23 42 27 42 17 0 43 160 28 174 -2
2 -114 -95 -249 -215z"/>
</g>
</svg>
