<?xml version="1.0" standalone="no"?>
<!DOCTYPE svg PUBLIC "-//W3C//DTD SVG 20010904//EN"
 "http://www.w3.org/TR/2001/REC-SVG-20010904/DTD/svg10.dtd">
<svg version="1.0" xmlns="http://www.w3.org/2000/svg"
 width="659.000000pt" height="316.000000pt" viewBox="0 0 659.000000 316.000000"
 preserveAspectRatio="xMidYMid meet">

<g transform="translate(0.000000,316.000000) scale(0.100000,-0.100000)"
fill="#000000" stroke="none">
<path d="M1458 2668 c-186 -177 -220 -418 -123 -893 80 -393 18 -598 -233
-783 -107 -78 -101 -77 -189 -42 -110 44 -149 69 -237 151 -158 148 -287 403
-341 679 -24 121 -24 120 -45 80 -27 -52 -110 -117 -187 -146 -106 -40 -105
-35 -34 -161 34 -59 71 -119 81 -133 l20 -25 19 25 c11 14 27 51 36 82 9 32
18 58 20 58 2 0 24 -39 50 -87 141 -265 357 -473 569 -547 37 -13 69 -26 71
-28 3 -2 -27 -20 -65 -38 -39 -19 -70 -37 -70 -41 0 -14 71 -22 154 -17 103 7
202 44 320 122 111 72 186 142 234 220 91 146 127 280 126 466 0 148 -13 201
-103 427 -84 214 -104 301 -99 429 3 94 6 108 40 173 20 39 35 71 33 71 -1 0
-22 -19 -47 -42z"/>
<path d="M341 2380 c-15 -9 -30 -121 -31 -229 l0 -73 38 7 c20 3 56 18 80 32
l43 25 -8 -64 c-13 -101 -7 -324 12 -433 41 -241 139 -439 289 -584 62 -61 67
-47 7 20 -58 65 -132 198 -166 300 -31 91 -55 231 -55 324 0 145 47 362 110
508 22 51 40 95 40 98 0 4 -17 3 -37 -2 -55 -13 -166 8 -244 47 -39 19 -70 29
-78 24z"/>
</g>
</svg>
